<?xml version="1.0" encoding="UTF-8"?>
<svg id="Layer_1" xmlns="http://www.w3.org/2000/svg" version="1.1" viewBox="0 0 508 889">
  <defs>
    <style>
      .st0 { fill: #3e5162; }
      .st1 { fill: #fff; }
    </style>
  </defs>
  <rect class="st0" x="-21" y="-10.5" width="550" height="910"/>
  <g>
    <path class="st1" d="M200.9,402.9c-1.3-.5-2-1.3-2-2.3,0-1.8,5.4-3.3,11.1-2.8,1.3-3.4,3.6-6.2,6.6-8.2,3-2,6.5-3,10.1-2.9,4,0,7.8,1.5,10.9,4,3.1,2.5,5.3,5.9,6.2,9.8,3.5-1.5,9.9-2,9.9-.7s-.3,1-1.3,1.7c-2.7,1.5-5,3.8-6.6,6.5-1.6,2.7-2.4,5.8-2.3,9,0,8.5,5.4,15.7,13.3,15.7s13.4-7.2,13.4-15.7c.1-2.9-.6-5.8-2.1-8.4-1.4-2.5-3.6-4.6-6.1-6.1-1-.7-2-1.3-2-2,0-2.2,6.4-1.8,9.5-.7.7-3.4,2.5-6.5,5.2-8.7,2.7-2.2,6.1-3.4,9.5-3.4,3.5,0,6.9,1.4,9.6,3.7,2.6,2.3,4.4,5.5,4.9,9,2.3-1.2,9.6-.3,9.6,1.5s-1.4,1.5-2.8,2.2c-12.3,5.7-46.6,35.6-46.6,57.7s13.9,32.3,20.5,34.7c2.2.8,2.5,1.7,2.5,2.2,0,1.7-4.4,3-9.7,1.8-1.1,3.7-3.4,7-6.5,9.3-3.1,2.3-6.9,3.5-10.8,3.5-3.9,0-7.6-1.3-10.7-3.7-3.1-2.4-5.3-5.7-6.3-9.4-5.6,1-10.9.5-10.9-1.3s.3-1.3,2.3-2.2c7.2-3,24-15.6,24-34.5s-31.5-51.3-52.5-59.2Z"/>
    <path class="st1" d="M166.6,444.5c0-23.2,9.2-45.4,25.6-61.8,16.4-16.4,38.6-25.6,61.8-25.6h0c23.2,0,45.4,9.2,61.8,25.6,16.4,16.4,25.6,38.6,25.6,61.8,0,23.2-9.2,45.4-25.6,61.8-16.4,16.4-38.6,25.6-61.8,25.6-23.2,0-45.4-9.2-61.8-25.6-16.4-16.4-25.6-38.6-25.6-61.8h0ZM202.3,392.8c-6.8,6.8-12.2,14.8-15.9,23.7-3.7,8.9-5.6,18.4-5.5,28,0,9.6,1.9,19.1,5.5,28,3.7,8.9,9.1,16.9,15.9,23.7,6.8,6.8,14.8,12.2,23.7,15.9,8.9,3.7,18.4,5.6,28,5.5,9.6,0,19.1-1.9,28-5.5,8.9-3.7,16.9-9.1,23.7-15.9,6.8-6.8,12.2-14.8,15.9-23.7,3.7-8.9,5.6-18.4,5.6-28,0-9.6-1.9-19.1-5.6-28-3.7-8.9-9.1-16.9-15.9-23.7-6.8-6.8-14.8-12.2-23.7-15.9-8.9-3.7-18.4-5.6-28-5.5-9.6,0-19.1,1.9-28,5.5-8.9,3.7-16.9,9.1-23.7,15.9Z"/>
  </g>
</svg>
