<?xml version="1.0" encoding="UTF-8"?>
<svg xmlns="http://www.w3.org/2000/svg" version="1.1" viewBox="0 0 550 910">
  <rect fill="#3e5162" y="0" width="550" height="910"/>
  <g>
    <path fill="#ffffff" d="M110.2,455c0-15.1,6-29.6,16.7-40.3,10.7-10.7,25.2-16.7,40.3-16.7h0c15.1,0,29.6,6,40.3,16.7,10.7,10.7,16.7,25.2,16.7,40.3,0,15.1-6,29.7-16.7,40.4-10.7,10.7-25.2,16.7-40.4,16.7-15.1,0-29.6-6-40.3-16.7-10.7-10.7-16.7-25.2-16.7-40.3h0ZM133.5,421.2c-4.4,4.4-8,9.7-10.4,15.5-2.4,5.8-3.6,12-3.6,18.3,0,6.3,1.2,12.5,3.6,18.3,2.4,5.8,5.9,11.1,10.4,15.5,4.4,4.4,9.7,8,15.5,10.4,5.8,2.4,12,3.6,18.3,3.6,6.3,0,12.5-1.2,18.3-3.6,5.8-2.4,11.1-5.9,15.5-10.4,4.4-4.4,8-9.7,10.4-15.5,2.4-5.8,3.6-12,3.6-18.3,0-6.3-1.2-12.5-3.6-18.3-2.4-5.8-5.9-11.1-10.4-15.5-4.4-4.4-9.7-8-15.5-10.4-5.8-2.4-12-3.6-18.3-3.6-6.3,0-12.5,1.2-18.3,3.6-5.8,2.4-11.1,5.9-15.5,10.4Z"/>
    <path fill="#ffffff" d="M132.6,427.8c-.9-.3-1.3-.9-1.3-1.5,0-1.2,3.5-2.2,7.3-1.8.8-2.2,2.4-4.1,4.3-5.4,2-1.3,4.3-2,6.6-1.9,2.6,0,5.1,1,7.1,2.6,2,1.6,3.4,3.9,4.1,6.4,2.3-1,6.4-1.3,6.4-.4s-.2.7-.9,1.1c-1.8,1-3.3,2.5-4.3,4.2-1,1.8-1.5,3.8-1.5,5.8,0,5.6,3.5,10.3,8.7,10.3s8.8-4.7,8.8-10.3c0-1.9-.4-3.8-1.3-5.5-.9-1.7-2.3-3-4-4-.7-.4-1.3-.9-1.3-1.3,0-1.4,4.1-1.2,6.2-.4.4-2.2,1.7-4.2,3.4-5.7,1.8-1.4,4-2.2,6.2-2.2,2.3,0,4.5.9,6.2,2.4,1.7,1.5,2.9,3.6,3.2,5.9,1.5-.8,6.2-.2,6.2,1s-.9,1-1.8,1.4c-8.1,3.7-30.4,23.2-30.4,37.7s9.1,21.1,13.4,22.7c1.4.5,1.7,1.1,1.7,1.4,0,1.1-2.9,2-6.4,1.2-.7,2.4-2.2,4.6-4.2,6.1-2,1.5-4.5,2.3-7,2.3-2.5,0-5-.9-7-2.4-2-1.5-3.4-3.7-4.1-6.1-3.6.7-7.1.3-7.1-.9s.2-.9,1.5-1.4c4.7-2,15.7-10.2,15.7-22.5s-20.6-33.5-34.3-38.7Z"/>
    <path fill="#ffffff" d="M305.7,422.4c-5.2,7.1-11,15.9-17.2,26.2-3.5,5.8-5.5,9.6-5.8,11.2-.2.9-.3,2.1-.3,3.7v4.9c0,9.7.3,15.1.9,16.2.3.5.6.8,1.1.9.8.2,2.9.4,6.1.6l.5.5v3.3l-.5.5c-3.3-.2-8.4-.3-15.3-.3s-12.2,0-15.3.3l-.4-.4v-3.4l.5-.5c3.2-.2,5.3-.4,6.1-.6.5-.1.9-.4,1.1-.9.6-1.1.9-6.5.9-16.2v-5.9c0-1.3-2.6-6.3-7.8-15.1-5.3-9-9.5-15.1-12.7-18.3-1.5-1.6-2.6-2.4-3.1-2.7-.5-.2-1.8-.3-3.7-.3l-.5-.5v-2.8l.5-.5c8.1-1.6,13.3-2.7,15.6-3.4,1.7.8,3.3,1.9,4.6,3.2,2.8,2.8,6.6,8.9,11.3,18.4l6.5,13c2-3.2,5.7-9.5,11.2-19l5.5-9.9c.6-1.1,1.4-2.6,2.4-4.5h7.3l.5.5v1.7Z"/>
    <path fill="#ffffff" d="M377,481.6l-2.3,5.1c-7,3.8-14.8,5.8-23.5,5.8-17.3,0-29.2-6.2-35.5-18.7-3-5.8-4.4-12-4.4-18.8,0-10.9,3.6-19.6,10.8-26,7.4-6.7,17.5-10,30.3-10s16.1,1.5,23.8,4.4l.6.7c-1.1,4.6-1.8,9.9-2.1,16.1l-.4.5h-2.9l-.5-.5c0-4-.3-6.8-.5-8.4-4.1-4.7-10.1-7-18-7s-14.4,2.6-19,7.7c-4.6,5.1-6.9,12-6.9,20.8s4.1,20.9,12.2,27.3c4.3,3.4,10.2,5.1,17.5,5.1s13.1-1.7,19.5-5.1l1.2,1.1Z"/>
    <path fill="#ffffff" d="M439.8,435.6c0,6.8-2.3,12.2-7,16-4.7,3.8-9.9,5.7-15.8,5.7s-4-.2-6-.7c-.3-.9-.9-2.1-1.7-3.6l1-1.1c1.4.5,2.7.7,3.8.7,3.3,0,6-1.2,8.1-3.6,2-2.4,3-5.7,3-10,0-9.3-4.2-13.9-12.5-13.9s-3,.2-6,.6c-.3.8-.4,6.2-.4,16.3v26.3c0,7.9.2,13,.6,15.4.2,1,.7,1.6,1.7,1.8.3,0,2.6.2,6.8.5l.5.5v3.3l-.5.5c-4.5-.2-10-.3-16.3-.3s-12.2,0-15.3.3l-.5-.4v-3.3l.5-.5c3.3-.2,5.3-.4,5.8-.5,1-.3,1.5-.9,1.7-1.8.4-2.4.6-7.5.6-15.4v-26.3c0-7.9-.2-13-.6-15.4-.2-1-.7-1.6-1.7-1.8-.5-.1-2.4-.3-5.8-.5l-.5-.5v-3.3l.5-.5c3.2.2,8.2.3,15,.3s6.8,0,12-.1c5.2,0,8.3-.1,9.1-.1,9.1,0,15,2.3,17.7,6.9,1.4,2.4,2.1,5.3,2.1,8.7Z"/>
  </g>
</svg>
