<?xml version="1.0" encoding="UTF-8"?>
<svg xmlns="http://www.w3.org/2000/svg" version="1.1" viewBox="0 0 144 252">
  <rect fill="#3e5162" width="144" height="252"/>
  <g>
    <path fill="#ffffff" d="M57.6,100.2c-.4-.1-.6-.4-.6-.7,0-.5,1.5-1,3.2-.8.4-1,1-1.8,1.9-2.3.9-.6,1.9-.9,2.9-.8,1.1,0,2.2.4,3.1,1.1.9.7,1.5,1.7,1.8,2.8,1-.4,2.8-.6,2.8-.2s0,.3-.4.5c-.8.4-1.4,1.1-1.9,1.9-.5.8-.7,1.7-.7,2.6,0,2.4,1.5,4.5,3.8,4.5s3.8-2.1,3.8-4.5c0-.8-.2-1.7-.6-2.4-.4-.7-1-1.3-1.8-1.7-.3-.2-.6-.4-.6-.6,0-.6,1.8-.5,2.7-.2.2-1,.7-1.8,1.5-2.5.8-.6,1.7-1,2.7-1,1,0,2,.4,2.7,1.1.8.7,1.3,1.6,1.4,2.6.7-.3,2.7,0,2.7.4s-.4.4-.8.6c-3.5,1.6-13.4,10.2-13.4,16.5s4,9.2,5.9,9.9c.6.2.7.5.7.6,0,.5-1.3.9-2.8.5-.3,1.1-1,2-1.9,2.7-.9.7-2,1-3.1,1-1.1,0-2.2-.4-3.1-1.1-.9-.7-1.5-1.6-1.8-2.7-1.6.3-3.1.1-3.1-.4s0-.4.7-.6c2.1-.9,6.9-4.5,6.9-9.9s-9-14.7-15.1-16.9Z"/>
    <path fill="#ffffff" d="M47.7,112.1c0-6.6,2.6-13,7.3-17.6,4.7-4.7,11.1-7.3,17.7-7.3,6.6,0,13,2.6,17.7,7.3,4.7,4.7,7.3,11,7.3,17.6,0,6.6-2.6,13-7.3,17.6-4.7,4.7-11.1,7.3-17.7,7.3-6.6,0-13-2.6-17.7-7.3-4.7-4.7-7.3-11-7.3-17.6ZM58,97.3c-2,1.9-3.5,4.2-4.6,6.8-1.1,2.5-1.6,5.2-1.6,8,0,2.7.5,5.5,1.6,8,1.1,2.5,2.6,4.8,4.6,6.8,1.9,1.9,4.3,3.5,6.8,4.5,2.5,1,5.3,1.6,8,1.6,2.8,0,5.5-.5,8-1.6,2.5-1,4.9-2.6,6.8-4.5,2-1.9,3.5-4.2,4.6-6.8,1.1-2.5,1.6-5.2,1.6-8,0-2.7-.5-5.5-1.6-8-1.1-2.5-2.6-4.8-4.6-6.8-1.9-1.9-4.3-3.5-6.8-4.5-2.5-1-5.3-1.6-8-1.6-2.8,0-5.5.5-8,1.6-2.5,1-4.9,2.6-6.8,4.5Z"/>
    <path fill="#ffffff" d="M38.7,151.1c-.9,1.2-1.8,2.6-2.9,4.3-.6,1-.9,1.6-1,1.8,0,.1,0,.3,0,.6v.8c0,1.6,0,2.5.1,2.7,0,0,.1.1.2.1.1,0,.5,0,1,.1h0v.6h0c-.5,0-1.4,0-2.5,0s-2,0-2.5,0h0v-.6h0c.5-.1.9-.2,1-.2,0,0,.1,0,.2-.1,0-.2.1-1.1.1-2.7v-1c0-.2-.4-1-1.3-2.5-.9-1.5-1.6-2.5-2.1-3-.3-.3-.4-.4-.5-.4,0,0-.3,0-.6,0h0v-.6h0c1.3-.4,2.2-.5,2.6-.6.3.1.5.3.8.5.5.5,1.1,1.5,1.9,3l1.1,2.2c.3-.5.9-1.6,1.9-3.1l.9-1.6c0-.2.2-.4.4-.7h1.3v.4Z"/>
    <path fill="#ffffff" d="M50.5,160.9l-.4.8c-1.2.6-2.5,1-3.9,1-2.9,0-4.8-1-5.9-3.1-.5-1-.7-2-.7-3.1,0-1.8.6-3.2,1.8-4.3,1.2-1.1,2.9-1.7,5-1.7s2.7.2,4,.7h.1c-.2.9-.3,1.8-.3,2.8h0c0,0-.5,0-.5,0h0c0-.8,0-1.2,0-1.5-.7-.8-1.7-1.2-3-1.2s-2.4.4-3.1,1.3c-.8.8-1.1,2-1.1,3.4s.7,3.5,2,4.5c.7.6,1.7.8,2.9.8s2.2-.3,3.2-.8l.2.2Z"/>
    <path fill="#ffffff" d="M60.9,153.3c0,1.1-.4,2-1.2,2.6-.8.6-1.6.9-2.6.9s-.7,0-1-.1c0-.1-.1-.3-.3-.6l.2-.2c.2,0,.4.1.6.1.6,0,1-.2,1.3-.6.3-.4.5-.9.5-1.7,0-1.5-.7-2.3-2.1-2.3s-.5,0-1,0c0,.1,0,1,0,2.7v4.3c0,1.3,0,2.2.1,2.5,0,.2.1.3.3.3,0,0,.4,0,1.1,0h0v.6h0c-.8,0-1.7,0-2.7,0s-2,0-2.5,0h0v-.6h0c.6-.1.9-.2,1-.2.2,0,.3-.1.3-.3,0-.4.1-1.2.1-2.5v-4.3c0-1.3,0-2.2-.1-2.5,0-.2-.1-.3-.3-.3,0,0-.4,0-1,0h0v-.6h0c.5,0,1.4,0,2.5,0s1.1,0,2,0c.9,0,1.4,0,1.5,0,1.5,0,2.5.4,2.9,1.1.2.4.3.9.3,1.4Z"/>
    <path fill="#ffffff" d="M77.4,162.3h0c0,0-.1,0-.3,0-.8,0-1.2,0-1.4,0-.3,0-.7,0-1.3,0,0-.1-.1-.4-.3-.7l-2-3.4-.9-1.4c-.1-.2-.3-.3-.5-.5v-.3c.2,0,.3,0,.4,0,.5,0,1,0,1.3-.3.3-.2.5-.4.8-.8.2-.4.4-.8.4-1.4,0-.9-.3-1.6-1-1.9-.3-.2-.8-.2-1.4-.2s-.5,0-.8,0c0,.5,0,1.5,0,2.7v4.3c0,1.3,0,2.2.1,2.5,0,.2.1.3.3.3,0,0,.4,0,1,0h0v.6h0c-.6,0-1.4,0-2.5,0s-2,0-2.5,0h0v-.6h0c.6-.1.9-.1,1-.2.2,0,.3-.1.3-.3,0-.4.1-1.2.1-2.5v-4.3c0-1.3,0-2.2-.1-2.5,0-.2-.1-.3-.3-.3,0,0-.4,0-1,0h0v-.6h0c.5,0,1.4,0,2.5,0s1.2,0,1.6,0c.8,0,1.5,0,1.9,0,1,0,1.7,0,2.1.3.6.2,1,.6,1.2,1.2,0,.3.1.6.1,1,0,1.5-.8,2.5-2.5,3.2.3.5.6.9.9,1.4l1.3,1.9c.7,1.2,1.2,1.8,1.5,2,.1,0,.3.1.5.1h0v.6Z"/>
    <path fill="#ffffff" d="M85.5,157.7c0,0,0,.2,0,.4h0c-.7.3-1.7.4-2.9.4s-.5,0-1,0c-.4,0-.8,0-1,0,0,.8.3,1.5.8,2,.5.6,1.1.8,1.9.8s1.2-.2,1.9-.5l.2.2-.4.8c-.8.5-1.7.8-2.6.8s-2.2-.3-2.9-1c-.7-.7-1-1.7-1-3s.4-2.6,1.1-3.1c1-.8,2-1.2,2.9-1.2s1.7.3,2.3.8c.6.6.8,1.4.8,2.5ZM83.4,157.5c0-1.5-.5-2.2-1.4-2.2s-1.5.7-1.5,2.2v.2c.3,0,.9,0,1.7,0s.8,0,1.1,0c0,0,0-.1,0-.2Z"/>
    <path fill="#ffffff" d="M96.1,162.3h0c-.6,0-1.1,0-1.5,0s-.9,0-1.7,0h0c0-1.3.1-2.2.1-2.9v-1.6c0-1.3-.5-2-1.5-2s-.9.2-1.2.5c-.2.3-.4.6-.4.9v1.5c0,1.4,0,2.3.1,2.6,0,.2.4.3,1,.3h0v.6h0c-.5,0-1.2,0-2.1,0s-1.7,0-2.3,0h0v-.6h0c.5,0,.9-.1,1-.2.1,0,.2-.2.2-.4,0-.7,0-1.5,0-2.3v-1.2c0-1.1,0-1.7-.1-1.9,0-.1-.2-.2-.4-.2,0,0-.3,0-.7,0h0v-.5h0c1-.2,2-.4,3.1-.8h.2c0,.1,0,1.5,0,1.5l1.4-1.2c.4-.1.8-.2,1.2-.2.9,0,1.5.3,2,.8.4.4.5,1.1.5,1.9s0,.5,0,1.1c0,.7,0,1.1,0,1.4,0,.8,0,1.4,0,1.6,0,.2,0,.4.2.4,0,0,.4,0,.9.1h0v.6Z"/>
    <path fill="#ffffff" d="M105.2,158.2c0,1.9-.7,3.3-2,3.9-.6.3-1.4.5-2.2.5-1.3,0-2.2-.4-2.9-1.1-.7-.7-1-1.8-1-3.1s.6-3.1,1.9-3.8c.6-.3,1.4-.5,2.2-.5,1.8,0,2.9.6,3.5,1.8.3.6.4,1.3.4,2.2ZM102.9,158.9c0-1.4-.2-2.3-.5-2.9-.3-.6-.8-.9-1.4-.9-1.1,0-1.6,1-1.6,3s.6,3.8,1.8,3.8,1.3-.4,1.5-1.3c.1-.4.2-1,.2-1.7Z"/>
    <path fill="#ffffff" d="M109.9,151.5c0,.4-.1.7-.4.9-.2.2-.5.4-.9.4s-.7-.1-.9-.4c-.2-.3-.4-.6-.4-.9s.1-.7.4-.9c.3-.2.6-.4.9-.4s.6.1.9.4c.3.2.4.6.4.9ZM111,162.3h0c-.5,0-1.3,0-2.3,0s-1.7,0-2.3,0h0v-.6h0c.5,0,.9-.1,1-.2.1,0,.2-.2.2-.4,0-.7,0-1.5,0-2.3v-1.2c0-1.1,0-1.7-.1-1.9,0-.1-.2-.2-.4-.2,0,0-.3,0-.7,0h0v-.5h0c1.1-.2,2.1-.4,3.2-.8h.2c0,1.1-.1,1.9-.1,2.6v2.6c0,.4,0,1,0,1.7,0,.2,0,.3.2.4.1,0,.5.1,1,.1h0v.6Z"/>
    <path fill="#ffffff" d="M118,154.4v1.5c0,.2,0,.5,0,.8h-.3c-.3-.3-.6-.5-1.1-.5s-.8.2-1,.5c-.2.2-.2.5-.2.9v1.9c0,.4,0,1,0,1.7,0,.2,0,.3.2.4.1,0,.5.1,1.1.1h0v.6h0c-.8,0-1.6,0-2.4,0s-1.7,0-2.3,0h0v-.6h0c.5,0,.9-.1,1-.2.1,0,.2-.2.2-.4,0-.7,0-1.5,0-2.3v-1.2c0-1.1,0-1.7-.1-1.9,0-.1-.2-.2-.4-.2,0,0-.3,0-.7,0h0v-.5h0c1-.2,2-.4,3.1-.8h.2c0,.1,0,1.7,0,1.7.3-.4.8-.9,1.2-1.4.2-.2.5-.3.9-.3s.4,0,.6,0Z"/>
  </g>
</svg>
