<?xml version="1.0" encoding="UTF-8"?>
<svg id="Layer_1" xmlns="http://www.w3.org/2000/svg" version="1.1" viewBox="0 0 508 889">
  <defs>
    <style>
      .st0 { fill: none; }
      .st1, .st2, .st3, .st4 { fill: #3e5162; }
      .st2 { font-family: CenturyPS, Century-PS; font-size: 18.2px; }
      .st2, .st5, .st3, .st4 { isolation: isolate; }
      .st6 { fill: #fff; }
      .st3 { font-size: 23px; }
      .st3, .st4 { font-family: PalatinoLinotype-Roman, 'Palatino Linotype'; }
      .st4 { font-size: 36px; }
    </style>
  </defs>
  <rect class="st0" y="0" width="508" height="889"/>
  <g>
    <rect class="st6" y="0" width="508" height="889"/>
    <path class="st1" d="M199.3,108.2c-1.4-.5-2.1-1.4-2.1-2.4,0-1.9,5.5-3.4,11.5-2.9,1.3-3.5,3.7-6.4,6.8-8.5s6.7-3.1,10.4-3c4.1.1,8,1.5,11.2,4.1,3.2,2.6,5.4,6.1,6.4,10.1,3.6-1.5,10.2-2.1,10.2-.7s-.3,1-1.3,1.7c-2.8,1.6-5.2,3.9-6.8,6.7-1.6,2.8-2.4,6-2.4,9.2,0,8.8,5.5,16.2,13.7,16.2s13.8-7.4,13.8-16.2c.1-3-.6-6-2.1-8.6-1.5-2.6-3.7-4.8-6.3-6.2-1-.7-2.1-1.4-2.1-2.1,0-2.2,6.5-1.9,9.8-.7.7-3.5,2.6-6.7,5.4-8.9,2.8-2.3,6.2-3.5,9.8-3.5,3.6,0,7.1,1.4,9.9,3.8,2.7,2.4,4.5,5.7,5,9.3,2.4-1.2,9.8-.3,9.8,1.6s-1.4,1.6-2.9,2.2c-12.7,5.9-48,36.7-48,59.4s14.4,33.3,21.1,35.8c2.3.9,2.6,1.7,2.6,2.2,0,1.7-4.5,3.1-10,1.9-1.1,3.8-3.5,7.2-6.7,9.6-3.2,2.4-7.1,3.6-11.1,3.6-4,0-7.9-1.4-11-3.8-3.2-2.4-5.4-5.8-6.5-9.7-5.7,1-11.2.5-11.2-1.4s.3-1.4,2.4-2.2c7.4-3.1,24.7-16.1,24.7-35.6s-32.5-52.9-54.1-61Z"/>
    <path class="st1" d="M164,151c0-23.9,9.5-46.7,26.4-63.6,16.9-16.9,39.8-26.4,63.6-26.4h0c23.9,0,46.8,9.5,63.6,26.4,16.9,16.9,26.4,39.8,26.4,63.6,0,23.9-9.5,46.8-26.4,63.6-16.9,16.9-39.8,26.4-63.6,26.4-23.9,0-46.8-9.5-63.6-26.4-16.9-16.9-26.4-39.8-26.4-63.6h0ZM200.7,97.7c-7,7-12.6,15.3-16.4,24.4-3.8,9.1-5.7,18.9-5.7,28.8,0,9.9,1.9,19.7,5.7,28.8,3.8,9.1,9.4,17.4,16.4,24.4,7,7,15.3,12.6,24.4,16.4,9.1,3.8,18.9,5.7,28.8,5.7,9.9,0,19.7-1.9,28.8-5.7,9.1-3.8,17.4-9.4,24.4-16.4,7-7,12.6-15.3,16.4-24.4,3.8-9.1,5.7-18.9,5.7-28.8,0-9.9-1.9-19.7-5.7-28.8-3.8-9.1-9.3-17.4-16.4-24.4-7-7-15.3-12.6-24.4-16.4-9.1-3.8-18.9-5.7-28.8-5.7-9.9,0-19.7,1.9-28.8,5.7-9.1,3.8-17.4,9.3-24.4,16.4Z"/>
    <g class="st5">
      <text class="st2" transform="translate(24 667.1)"><tspan x="0" y="0">{{office}}</tspan></text>
    </g>
    <g class="st5">
      <text class="st2" transform="translate(24 705.1)"><tspan x="0" y="0">{{address}}</tspan></text>
    </g>
    <g class="st5">
      <text class="st2" transform="translate(24 777.5)"><tspan x="0" y="0">Office</tspan></text>
    </g>
    <g class="st5">
      <text class="st2" transform="translate(99 777.5)"><tspan x="0" y="0">:</tspan></text>
    </g>
    <g class="st5">
      <text class="st2" transform="translate(111 777.5)"><tspan x="0" y="0">{{phone}}</tspan></text>
    </g>
    <g class="st5">
      <text class="st2" transform="translate(24 802.5)"><tspan x="0" y="0">Mobile</tspan></text>
    </g>
    <g class="st5">
      <text class="st2" transform="translate(99 802.5)"><tspan x="0" y="0">:</tspan></text>
    </g>
    <g class="st5">
      <text class="st2" transform="translate(111 802.5)"><tspan x="0" y="0">{{mobile}}</tspan></text>
    </g>
    <g class="st5">
      <text class="st2" transform="translate(24 827.5)"><tspan x="0" y="0">Email</tspan></text>
    </g>
    <g class="st5">
      <text class="st2" transform="translate(99 827.5)"><tspan x="0" y="0">:</tspan></text>
    </g>
    <g class="st5">
      <text class="st2" transform="translate(111 827.5)"><tspan x="0" y="0">{{email}}</tspan></text>
    </g>
    <g class="st5">
      <text class="st2" transform="translate(24 852.5)"><tspan x="0" y="0">Website</tspan></text>
    </g>
    <g class="st5">
      <text class="st2" transform="translate(99 852.5)"><tspan x="0" y="0">:</tspan></text>
    </g>
    <g class="st5">
      <text class="st2" transform="translate(111 852.5)"><tspan x="0" y="0">{{website}}</tspan></text>
    </g>
    <g class="st5">
      <text class="st4" transform="translate(24 433.6)"><tspan x="0" y="0">{{fullName}}</tspan></text>
    </g>
    <g class="st5">
      <text class="st3" transform="translate(24 478.1)"><tspan x="0" y="0">{{position}}</tspan></text>
      <text class="st3" transform="translate(24 508.1)"><tspan x="0" y="0">{{division}}</tspan></text>
    </g>
  </g>
</svg>
