<?xml version="1.0" encoding="UTF-8"?>
<svg xmlns="http://www.w3.org/2000/svg" version="1.1" viewBox="0 0 508 889">
  <rect x="-21" y="-10.5" width="550" height="910" fill="#3e5162"/>
  <!-- YCP logo (white) centered: 340×121 at (84, 384) -->
  <svg x="84" y="384" width="340" height="121" viewBox="0 0 376 134" fill="none" xmlns="http://www.w3.org/2000/svg">
    <path d="M0 65.5088C0.00551374 48.215 6.87791 31.631 19.1065 19.4024C31.3351 7.17381 47.919 0.301412 65.2129 0.295898V0.295898C82.5103 0.295898 99.0996 7.16586 111.333 19.3951C123.566 31.6243 130.441 48.2114 130.447 65.5088V65.5088C130.447 82.8099 123.574 99.4023 111.34 111.636C99.1064 123.87 82.5139 130.743 65.2129 130.743V130.743C47.9154 130.737 31.3283 123.862 19.0992 111.629C6.86996 99.3956 -8.79427e-07 82.8063 0 65.5088H0ZM26.626 26.9219C21.544 31.979 17.5139 37.9925 14.7683 44.6154C12.0227 51.2383 10.6161 58.3394 10.6296 65.5088V65.5088C10.6157 72.6814 12.022 79.7858 14.7675 86.4121C17.513 93.0385 21.5433 99.0556 26.626 104.117V104.117C31.683 109.199 37.6966 113.229 44.3195 115.974C50.9424 118.72 58.0435 120.126 65.2129 120.113V120.113C72.3858 120.129 79.4909 118.724 86.1175 115.978C92.7442 113.233 98.7611 109.201 103.821 104.117V104.117C108.9 99.0529 112.927 93.0352 115.673 86.4095C118.418 79.7838 119.826 72.6807 119.817 65.5088V65.5088C119.826 58.3401 118.417 51.2403 115.672 44.618C112.927 37.9958 108.899 31.9817 103.821 26.9219V26.9219C98.7611 21.8374 92.7442 17.8058 86.1175 15.0602C79.4909 12.3146 72.3858 10.9093 65.2129 10.9255V10.9255C58.0435 10.912 50.9424 12.3186 44.3195 15.0642C37.6966 17.8098 31.683 21.8399 26.626 26.9219V26.9219Z" fill="white"/>
    <path d="M25.5867 34.4728C24.5882 34.0984 24.089 33.4743 24.089 32.7255C24.089 31.3526 28.1037 30.2293 32.4096 30.6453C33.3807 28.1425 35.1005 26.0004 37.3342 24.5112C39.5679 23.0221 42.2067 22.2585 44.8905 22.3247C47.8492 22.3977 50.7019 23.441 53.0096 25.294C55.3173 27.1469 56.9522 29.7068 57.6627 32.5798C60.2837 31.4566 65.0264 31.0821 65.0264 32.0806C65.0264 32.5798 64.7976 32.8295 64.0488 33.3287C61.9979 34.4647 60.2949 36.1374 59.1223 38.1676C57.9496 40.1977 57.3516 42.5087 57.3923 44.8528C57.3923 51.218 61.407 56.6056 67.2938 56.6056C73.1807 56.6056 77.2994 51.218 77.2994 44.8528C77.375 42.667 76.8436 40.5031 75.764 38.601C74.6845 36.699 73.0991 35.1333 71.1837 34.0776C70.4349 33.5783 69.686 33.0791 69.686 32.5798C69.686 30.9573 74.4288 31.2069 76.8001 32.0806C77.3107 29.535 78.689 27.2454 80.6996 25.6028C82.7102 23.9601 85.2286 23.0662 87.825 23.0735C90.4585 23.1166 92.9903 24.0975 94.9653 25.84C96.9404 27.5825 98.2292 29.9723 98.6002 32.5798C100.348 31.7062 105.735 32.3302 105.735 33.7031C105.735 34.452 104.716 34.8264 103.655 35.3257C94.4399 39.6108 68.8955 61.8892 68.8955 78.4057C68.8955 91.3027 79.2963 102.556 84.1639 104.324C85.8072 104.948 86.0568 105.573 86.0568 105.947C86.0568 107.195 82.791 108.194 78.7971 107.32C77.9848 110.095 76.2884 112.529 73.9659 114.251C71.6434 115.974 68.8218 116.891 65.9305 116.862C63.0391 116.834 60.236 115.862 57.9476 114.095C55.6592 112.327 54.0107 109.861 53.2528 107.07C49.0924 107.819 45.1193 107.445 45.1193 106.072C45.1193 105.573 45.369 105.073 46.8667 104.449C52.2543 102.203 64.7768 92.8004 64.7768 78.6761C64.7768 61.8892 41.2295 40.3596 25.5867 34.4728Z" fill="white"/>
    <path d="M223.475 28.1852C217.485 36.3365 210.926 46.3265 203.799 58.1553C199.78 64.8279 197.562 69.0931 197.145 70.9509C196.917 71.9366 196.804 73.3583 196.804 75.216V80.8461C196.804 91.9545 197.145 98.1343 197.827 99.3854C198.131 99.9162 198.567 100.257 199.135 100.409C200.083 100.674 202.415 100.921 206.13 101.148L206.699 101.717V105.527L206.13 106.096C202.377 105.869 196.538 105.755 188.614 105.755C180.501 105.755 174.663 105.869 171.099 106.096L170.587 105.584V101.717L171.156 101.148C174.871 100.921 177.203 100.674 178.151 100.409C178.719 100.257 179.155 99.9162 179.459 99.3854C180.141 98.1343 180.482 91.9545 180.482 80.8461V74.1355C180.482 72.6948 177.506 66.9321 171.554 56.8473C165.488 46.5729 160.654 39.597 157.052 35.9194C155.308 34.1375 154.133 33.1328 153.526 32.9054C152.92 32.64 151.498 32.5073 149.261 32.5073L148.635 31.8817V28.697L149.204 28.0715C158.455 26.2517 164.388 24.9626 167.004 24.2044C168.976 25.1522 170.739 26.3844 172.293 27.9009C175.516 31.0476 179.838 38.0615 185.259 48.9425L192.709 63.8422C194.946 60.2405 199.211 52.9991 205.505 42.1182L211.817 30.8012C212.5 29.5501 213.428 27.8251 214.604 25.6261H222.907L223.475 26.1948V28.1852Z" fill="white"/>
    <path d="M300.59 95.8027L297.974 101.603C289.974 106.001 281.027 108.2 271.132 108.2C251.341 108.2 237.806 101.073 230.527 86.8174C227.153 80.2205 225.466 73.074 225.466 65.3777C225.466 52.9423 229.598 43.0281 237.863 35.6351C246.318 28.0146 257.862 24.2044 272.497 24.2044C281.785 24.2044 290.865 25.8915 299.737 29.2657L300.476 30.1188C299.187 35.3507 298.391 41.4737 298.088 48.4875L297.576 49.0562H294.221L293.652 48.4307C293.538 43.8432 293.33 40.6585 293.026 38.8766C288.287 33.5309 281.444 30.8581 272.497 30.8581C263.284 30.8581 256.061 33.7774 250.829 39.6159C245.597 45.4545 242.981 53.3783 242.981 63.3872C242.981 76.9221 247.645 87.3102 256.971 94.5516C261.938 98.4187 268.592 100.352 276.932 100.352C284.515 100.352 291.927 98.3997 299.168 94.4947L300.59 95.8027Z" fill="white"/>
    <path d="M372.416 43.3124C372.416 51.1225 369.743 57.2264 364.397 61.6243C359.089 65.9843 353.08 68.1643 346.37 68.1643C344.095 68.1643 341.801 67.8989 339.488 67.3681C339.147 66.3444 338.484 64.9796 337.498 63.2735L338.692 62.0224C340.285 62.5532 341.744 62.8186 343.071 62.8186C346.9 62.8186 349.971 61.4727 352.284 58.7808C354.597 56.0511 355.753 52.2409 355.753 47.3501C355.753 36.7725 350.995 31.4836 341.479 31.4836C340.341 31.4836 338.067 31.7111 334.655 32.1661C334.313 33.076 334.143 39.2747 334.143 50.7623V80.8461C334.143 89.8693 334.389 95.7458 334.882 98.4755C335.072 99.575 335.716 100.276 336.816 100.58C337.157 100.656 339.754 100.845 344.607 101.148L345.232 101.774V105.527L344.664 106.096C339.469 105.869 333.252 105.755 326.01 105.755C317.859 105.755 312.021 105.869 308.495 106.096L307.926 105.584V101.774L308.552 101.148C312.381 100.921 314.58 100.731 315.148 100.58C316.248 100.276 316.892 99.575 317.082 98.4755C317.575 95.7458 317.821 89.8693 317.821 80.8461V50.7623C317.821 41.739 317.575 35.8626 317.082 33.1328C316.892 32.0334 316.248 31.332 315.148 31.0287C314.58 30.877 312.362 30.6875 308.495 30.46L307.926 29.8344V26.0811L308.552 25.5124C312.267 25.7398 317.973 25.8536 325.669 25.8536C328.854 25.8536 333.441 25.7967 339.432 25.683C345.422 25.5692 348.872 25.5124 349.782 25.5124C360.17 25.5124 366.918 28.1473 370.027 33.4172C371.62 36.1469 372.416 39.4453 372.416 43.3124Z" fill="white"/>
  </svg>
</svg>
