<?xml version="1.0" encoding="UTF-8"?>
<svg id="Layer_1" xmlns="http://www.w3.org/2000/svg" version="1.1" viewBox="0 0 144 252">
  <defs>
    <style>
      .st0 {
        font-size: 6.5px;
      }

      .st0, .st1, .st2, .st3, .st4 {
        fill: #3e5162;
      }

      .st0, .st5, .st2, .st4 {
        isolation: isolate;
      }

      .st0, .st2 {
        font-family: PalatinoLinotype-Roman, 'Palatino Linotype';
      }

      .st6 {
        fill: #fff;
      }

      .st2 {
        font-size: 10.2px;
      }

      .st3, .st4 {
        font-family: CenturyPS, Century-PS;
        font-size: 5.2px;
      }
    </style>
  </defs>
  <rect class="st6" y="-.4" width="144" height="252"/>
  <text class="st4" transform="translate(6.8 214)"><tspan x="0" y="0">Office</tspan><tspan x="0" y="7.3">Mobile</tspan><tspan x="0" y="14.6">Email</tspan><tspan x="0" y="29.2">Website</tspan></text>
  <g class="st5">
    <text class="st3" transform="translate(28.1 214)"><tspan x="0" y="0">:</tspan><tspan x="0" y="7.3">:</tspan><tspan x="0" y="14.6">:</tspan><tspan x="0" y="29.2">:</tspan></text>
  </g>
  <g class="st5">
    <text class="st3" transform="translate(32.1 214)"><tspan x="0" y="0">{{phone}}</tspan><tspan x="0" y="7.3">{{mobile}}</tspan><tspan x="0" y="14.6">{{email}}</tspan><tspan x="0" y="21.9">{{email2}}</tspan><tspan x="0" y="29.2">{{website}}</tspan></text>
  </g>
  <path class="st1" d="M56.5,30.2c-.4-.1-.6-.4-.6-.7,0-.5,1.6-1,3.3-.8.4-1,1.1-1.8,1.9-2.4.9-.6,1.9-.9,3-.9,1.2,0,2.3.4,3.2,1.2.9.7,1.5,1.7,1.8,2.8,1-.4,2.9-.6,2.9-.2s0,.3-.4.5c-.8.4-1.5,1.1-1.9,1.9-.5.8-.7,1.7-.7,2.6,0,2.5,1.6,4.6,3.9,4.6s3.9-2.1,3.9-4.6c0-.9-.2-1.7-.6-2.4-.4-.7-1-1.4-1.8-1.8-.3-.2-.6-.4-.6-.6,0-.6,1.9-.5,2.8-.2.2-1,.7-1.9,1.5-2.5.8-.6,1.8-1,2.8-1,1,0,2,.4,2.8,1.1.8.7,1.3,1.6,1.4,2.6.7-.3,2.8,0,2.8.4s-.4.4-.8.6c-3.6,1.7-13.6,10.4-13.6,16.9s4.1,9.4,6,10.1c.6.2.7.5.7.6,0,.5-1.3.9-2.8.5-.3,1.1-1,2-1.9,2.7-.9.7-2,1-3.1,1-1.1,0-2.2-.4-3.1-1.1-.9-.7-1.5-1.7-1.8-2.7-1.6.3-3.2.1-3.2-.4s0-.4.7-.6c2.1-.9,7-4.6,7-10.1s-9.2-15-15.3-17.3Z"/>
  <path class="st1" d="M46.5,42.4c0-6.8,2.7-13.3,7.5-18,4.8-4.8,11.3-7.5,18-7.5h0c6.8,0,13.3,2.7,18,7.5,4.8,4.8,7.5,11.3,7.5,18,0,6.8-2.7,13.3-7.5,18-4.8,4.8-11.3,7.5-18,7.5-6.8,0-13.3-2.7-18-7.5-4.8-4.8-7.5-11.3-7.5-18h0ZM56.9,27.3c-2,2-3.6,4.3-4.6,6.9-1.1,2.6-1.6,5.4-1.6,8.2,0,2.8.5,5.6,1.6,8.2,1.1,2.6,2.7,4.9,4.6,6.9,2,2,4.3,3.6,6.9,4.6,2.6,1.1,5.4,1.6,8.2,1.6,2.8,0,5.6-.5,8.2-1.6,2.6-1.1,4.9-2.7,6.9-4.6,2-2,3.6-4.3,4.6-6.9,1.1-2.6,1.6-5.4,1.6-8.2,0-2.8-.5-5.6-1.6-8.2-1.1-2.6-2.6-4.9-4.6-6.9-2-2-4.3-3.6-6.9-4.6-2.6-1.1-5.4-1.6-8.2-1.6-2.8,0-5.6.5-8.2,1.6-2.6,1.1-4.9,2.7-6.9,4.6Z"/>
  <text class="st4" transform="translate(6.8 195.5)"><tspan x="0" y="0">{{office}}</tspan></text>
  <text class="st4" transform="translate(6.8 206.3)"><tspan x="0" y="0">{{address}}</tspan></text>
  <text class="st2" transform="translate(6.8 123)"><tspan x="0" y="0">{{fullName}}</tspan></text>
  <text class="st0" transform="translate(6.8 135.7)"><tspan x="0" y="0">{{position}}</tspan></text>
  <text class="st0" transform="translate(6.8 144.2)"><tspan x="0" y="0">{{division}}</tspan></text>
</svg>
