<svg width="376" height="134" viewBox="0 0 376 134" fill="none" xmlns="http://www.w3.org/2000/svg">
<path d="M0.143555 65.5088C0.149068 48.215 7.02146 31.631 19.2501 19.4024C31.4787 7.17381 48.0626 0.301412 65.3564 0.295898V0.295898C82.6539 0.295898 99.2432 7.16586 111.476 19.3951C123.709 31.6243 130.585 48.2114 130.59 65.5088V65.5088C130.59 82.8099 123.717 99.4023 111.484 111.636C99.2499 123.87 82.6575 130.743 65.3564 130.743V130.743C48.059 130.737 31.4719 123.862 19.2427 111.629C7.01351 99.3956 0.143554 82.8063 0.143555 65.5088H0.143555ZM26.7696 26.9219C21.6875 31.979 17.6574 37.9925 14.9119 44.6154C12.1663 51.2383 10.7597 58.3394 10.7732 65.5088V65.5088C10.7592 72.6814 12.1656 79.7858 14.9111 86.4121C17.6566 93.0385 21.6869 99.0556 26.7696 104.117V104.117C31.8266 109.199 37.8401 113.229 44.463 115.974C51.0859 118.72 58.187 120.126 65.3564 120.113V120.113C72.5294 120.129 79.6344 118.724 86.2611 115.978C92.8877 113.233 98.9046 109.201 103.964 104.117V104.117C109.043 99.0529 113.071 93.0352 115.816 86.4095C118.561 79.7838 119.97 72.6807 119.961 65.5088V65.5088C119.969 58.3401 118.561 51.2403 115.815 44.618C113.07 37.9958 109.042 31.9817 103.964 26.9219V26.9219C98.9046 21.8374 92.8877 17.8058 86.2611 15.0602C79.6344 12.3146 72.5294 10.9093 65.3564 10.9255V10.9255C58.187 10.912 51.0859 12.3186 44.463 15.0642C37.8401 17.8098 31.8266 21.8399 26.7696 26.9219V26.9219Z" fill="#001C44"/>
<path d="M25.7302 34.4728C24.7318 34.0984 24.2325 33.4743 24.2325 32.7255C24.2325 31.3526 28.2472 30.2293 32.5531 30.6453C33.5243 28.1425 35.244 26.0004 37.4778 24.5112C39.7115 23.0221 42.3503 22.2585 45.0341 22.3247C47.9927 22.3977 50.8454 23.441 53.1531 25.294C55.4609 27.1469 57.0958 29.7068 57.8062 32.5798C60.4272 31.4566 65.17 31.0821 65.17 32.0806C65.17 32.5798 64.9412 32.8295 64.1923 33.3287C62.1415 34.4647 60.4385 36.1374 59.2658 38.1676C58.0932 40.1977 57.4952 42.5087 57.5358 44.8528C57.5358 51.218 61.5505 56.6056 67.4374 56.6056C73.3242 56.6056 77.4429 51.218 77.4429 44.8528C77.5186 42.667 76.9871 40.5031 75.9076 38.601C74.8281 36.699 73.2426 35.1333 71.3273 34.0776C70.5784 33.5783 69.8296 33.0791 69.8296 32.5798C69.8296 30.9573 74.5723 31.2069 76.9437 32.0806C77.4543 29.535 78.8325 27.2454 80.8432 25.6028C82.8538 23.9601 85.3722 23.0662 87.9685 23.0735C90.602 23.1166 93.1338 24.0975 95.1089 25.84C97.0839 27.5825 98.3728 29.9723 98.7437 32.5798C100.491 31.7062 105.879 32.3302 105.879 33.7031C105.879 34.452 104.859 34.8264 103.799 35.3257C94.5834 39.6108 69.0391 61.8892 69.0391 78.4057C69.0391 91.3027 79.4399 102.556 84.3074 104.324C85.9508 104.948 86.2004 105.573 86.2004 105.947C86.2004 107.195 82.9345 108.194 78.9406 107.32C78.1283 110.095 76.4319 112.529 74.1094 114.251C71.7869 115.974 68.9654 116.891 66.074 116.862C63.1826 116.834 60.3796 115.862 58.0912 114.095C55.8028 112.327 54.1542 109.861 53.3963 107.07C49.236 107.819 45.2629 107.445 45.2629 106.072C45.2629 105.573 45.5125 105.073 47.0102 104.449C52.3978 102.203 64.9204 92.8004 64.9204 78.6761C64.9204 61.8892 41.373 40.3596 25.7302 34.4728Z" fill="#001C44"/>
<path d="M223.619 28.1852C217.629 36.3365 211.07 46.3265 203.942 58.1553C199.923 64.8279 197.705 69.0931 197.288 70.9509C197.061 71.9366 196.947 73.3583 196.947 75.216V80.8461C196.947 91.9545 197.288 98.1343 197.971 99.3854C198.274 99.9162 198.71 100.257 199.279 100.409C200.227 100.674 202.558 100.921 206.274 101.148L206.842 101.717V105.527L206.274 106.096C202.52 105.869 196.682 105.755 188.758 105.755C180.645 105.755 174.806 105.869 171.242 106.096L170.731 105.584V101.717L171.299 101.148C175.015 100.921 177.346 100.674 178.294 100.409C178.863 100.257 179.299 99.9162 179.602 99.3854C180.285 98.1343 180.626 91.9545 180.626 80.8461V74.1355C180.626 72.6948 177.65 66.9321 171.697 56.8473C165.631 46.5729 160.797 39.597 157.196 35.9194C155.452 34.1375 154.276 33.1328 153.67 32.9054C153.063 32.64 151.641 32.5073 149.405 32.5073L148.779 31.8817V28.697L149.348 28.0715C158.598 26.2517 164.532 24.9626 167.148 24.2044C169.119 25.1522 170.882 26.3844 172.437 27.9009C175.659 31.0476 179.981 38.0615 185.403 48.9425L192.853 63.8422C195.089 60.2405 199.355 52.9991 205.648 42.1182L211.961 30.8012C212.643 29.5501 213.572 27.8251 214.747 25.6261H223.05L223.619 26.1948V28.1852Z" fill="#001C44"/>
<path d="M300.733 95.8027L298.117 101.603C290.118 106.001 281.17 108.2 271.275 108.2C251.485 108.2 237.95 101.073 230.671 86.8174C227.296 80.2205 225.609 73.074 225.609 65.3777C225.609 52.9423 229.742 43.0281 238.007 35.6351C246.461 28.0146 258.006 24.2044 272.64 24.2044C281.929 24.2044 291.009 25.8915 299.88 29.2657L300.62 30.1188C299.331 35.3507 298.535 41.4737 298.231 48.4875L297.719 49.0562H294.364L293.795 48.4307C293.682 43.8432 293.473 40.6585 293.17 38.8766C288.431 33.5309 281.588 30.8581 272.64 30.8581C263.427 30.8581 256.205 33.7774 250.973 39.6159C245.741 45.4545 243.125 53.3783 243.125 63.3872C243.125 76.9221 247.788 87.3102 257.115 94.5516C262.081 98.4187 268.735 100.352 277.076 100.352C284.658 100.352 292.07 98.3997 299.312 94.4947L300.733 95.8027Z" fill="#001C44"/>
<path d="M372.559 43.3124C372.559 51.1225 369.886 57.2264 364.541 61.6243C359.233 65.9843 353.224 68.1643 346.513 68.1643C344.238 68.1643 341.945 67.8989 339.632 67.3681C339.291 66.3444 338.627 64.9796 337.642 63.2735L338.836 62.0224C340.428 62.5532 341.888 62.8186 343.215 62.8186C347.044 62.8186 350.115 61.4727 352.428 58.7808C354.74 56.0511 355.897 52.2409 355.897 47.3501C355.897 36.7725 351.139 31.4836 341.622 31.4836C340.485 31.4836 338.21 31.7111 334.798 32.1661C334.457 33.076 334.286 39.2747 334.286 50.7623V80.8461C334.286 89.8693 334.533 95.7458 335.026 98.4755C335.215 99.575 335.86 100.276 336.959 100.58C337.3 100.656 339.897 100.845 344.75 101.148L345.376 101.774V105.527L344.807 106.096C339.613 105.869 333.395 105.755 326.154 105.755C318.003 105.755 312.164 105.869 308.638 106.096L308.07 105.584V101.774L308.695 101.148C312.524 100.921 314.723 100.731 315.292 100.58C316.391 100.276 317.036 99.575 317.226 98.4755C317.718 95.7458 317.965 89.8693 317.965 80.8461V50.7623C317.965 41.739 317.718 35.8626 317.226 33.1328C317.036 32.0334 316.391 31.332 315.292 31.0287C314.723 30.877 312.505 30.6875 308.638 30.46L308.07 29.8344V26.0811L308.695 25.5124C312.411 25.7398 318.116 25.8536 325.813 25.8536C328.997 25.8536 333.585 25.7967 339.575 25.683C345.565 25.5692 349.015 25.5124 349.925 25.5124C360.313 25.5124 367.062 28.1473 370.171 33.4172C371.763 36.1469 372.559 39.4453 372.559 43.3124Z" fill="#001C44"/>
</svg>
